# xmcd
#
# Track frame offsets:
#	150
#	11589
#	23840
#	33853
#	43839
#	56078
#	67226
#	76793
#	89056
#	98131
#	113052
#	125396
#	136049
#	148047
#	157008
#
# Disc length: 2263 seconds
#
# Revision: 0
# Processed by: cddbd v1.5.1PL0 Copyright (c) Steve Scherf et al.
# Submitted via: dBpowerAMP V4.0
#
DISCID=c908d50f
DTITLE=Divers - Forever country Cd1
DYEAR=2001
DGENRE=Country
TTITLE0=Patsy Cline - Walking after midnight
TTITLE1=Conway Twitty - Crazy Dreams
TTITLE2=Leroy Van Dyke - Walk On By
TTITLE3=Jimmy C. Newman - A fallen star
TTITLE4=Johnny Cash - I walk the line
TTITLE5=Don Gibson - Oh lonesome me
TTITLE6=Dave Dudley - Six days on the road
TTITLE7=Frankie Laine - High Noon
TTITLE8=Webb Pierce - Honky tonk song
TTITLE9=Jeannie C. Riley - Harper Valley P.T.A.
TTITLE10=Willie Nelson - The shelter of your arms
TTITLE11=Charlie Rich - Who will the next fool be
TTITLE12=Waylon Jennings - Don't think twice
TTITLE13=Jerry Lee Lewis - Jambalaya
TTITLE14=Lynn Anderson - Rose garden
EXTD=Cd 1
EXTT0=
EXTT1=
EXTT2=
EXTT3=
EXTT4=
EXTT5=
EXTT6=
EXTT7=
EXTT8=
EXTT9=
EXTT10=
EXTT11=
EXTT12=
EXTT13=
EXTT14=
PLAYORDER=
